<svg width="397" height="95" viewBox="0 0 397 95" fill="none" xmlns="http://www.w3.org/2000/svg">
<path d="M10.944 24.448V40.32L16.64 42.624L16.256 44.032H0.384L0 42.624L3.52 41.152C4.288 40.8533 4.8 40.5333 5.056 40.192C5.35467 39.8507 5.504 39.36 5.504 38.72V6.08L0 3.84L0.384 2.432H30.144V11.2L28.224 11.648L25.152 6.016L12.672 5.76C11.52 5.76 10.944 6.42133 10.944 7.744V21.056H21.184L23.232 16.64L24.64 17.024V28.928L23.232 29.312L22.016 26.432C21.7173 25.664 21.3973 25.152 21.056 24.896C20.7147 24.5973 20.224 24.448 19.584 24.448H10.944Z" fill="white"/>
<path d="M33.631 29.632C33.631 24.9387 34.975 21.2907 37.663 18.688C40.351 16.0427 43.487 14.72 47.071 14.72C50.655 14.72 53.3643 15.7867 55.199 17.92C57.0337 20.0107 57.951 22.8907 57.951 26.56V28.672L56.991 29.632H39.071C39.1563 32.9173 40.0737 35.5413 41.823 37.504C43.5723 39.4667 45.8123 40.448 48.543 40.448C51.3163 40.448 53.9617 39.8933 56.479 38.784L57.375 40.448C56.863 40.96 56.2443 41.4933 55.519 42.048C54.7937 42.56 53.6203 43.1147 51.999 43.712C50.4203 44.2667 48.7563 44.544 47.007 44.544C43.039 44.544 39.8177 43.2427 37.343 40.64C34.8683 37.9947 33.631 34.3253 33.631 29.632ZM46.367 18.816C44.3617 18.816 42.719 19.136 41.439 19.776C40.927 20.416 40.415 21.44 39.903 22.848C39.4337 24.256 39.1777 25.6 39.135 26.88L52.831 26.496C52.831 21.376 50.6763 18.816 46.367 18.816Z" fill="white"/>
<path d="M67.328 38.336V18.304H62.848L62.464 16.896L67.328 14.72L70.144 8.768L72.512 9.216V15.232H80.128L80.832 16L80.192 18.432L72.512 18.176V36.864C72.512 38.4427 72.832 39.616 73.472 40.384C74.112 41.1093 75.2427 41.472 76.864 41.472H80.512L80.832 43.264C78.144 44.1173 75.776 44.544 73.728 44.544C71.68 44.544 70.1013 43.968 68.992 42.816C67.8827 41.664 67.328 40.1707 67.328 38.336Z" fill="white"/>
<path d="M102.792 19.072C101.853 18.816 100.36 18.688 98.312 18.688C96.264 18.688 94.5147 19.0507 93.064 19.776C91.4427 21.824 90.632 24.7467 90.632 28.544C90.632 32.3413 91.528 35.2853 93.32 37.376C95.112 39.424 97.416 40.448 100.232 40.448C103.048 40.448 105.672 39.8933 108.104 38.784L109 40.448C108.488 40.96 107.869 41.4933 107.144 42.048C106.419 42.56 105.245 43.1147 103.624 43.712C102.045 44.2667 100.381 44.544 98.632 44.544C94.664 44.544 91.4427 43.2427 88.968 40.64C86.4933 37.9947 85.256 34.3253 85.256 29.632C85.256 24.9387 86.6 21.2907 89.288 18.688C92.0187 16.0427 95.3253 14.72 99.208 14.72C101.128 14.72 102.835 15.0827 104.328 15.808C105.821 16.5333 106.824 17.1733 107.336 17.728C107.848 18.2827 108.253 18.8373 108.552 19.392L104.84 24.384L103.304 23.936L102.792 19.072Z" fill="white"/>
<path d="M135.754 25.28C135.754 23.104 135.242 21.5467 134.218 20.608C133.237 19.6267 131.637 19.136 129.418 19.136C127.199 19.136 124.981 19.4133 122.762 19.968V40.576L127.818 42.624L127.434 44.032H113.098L112.714 42.624L115.594 41.408C116.362 41.1093 116.874 40.7893 117.13 40.448C117.429 40.1067 117.578 39.616 117.578 38.976V5.12L113.098 4.416L112.714 3.008L121.354 0L122.634 0.512001V17.152C125.578 15.5307 128.607 14.72 131.722 14.72C137.866 14.72 140.938 17.984 140.938 24.512V40.576L145.994 42.624L145.61 44.032H131.274L130.89 42.624L133.77 41.408C134.538 41.1093 135.05 40.7893 135.306 40.448C135.605 40.1067 135.754 39.616 135.754 38.976V25.28Z" fill="white"/>
<path d="M195.315 7.744L196.787 40.384L202.291 42.624L201.907 44.032H186.739L186.355 42.624L189.235 41.216C190.6 40.576 191.262 39.744 191.219 38.72L189.811 7.36L177.523 42.752L173.555 44.032L172.339 43.392L160.371 7.424L158.579 40.384L163.443 42.624L163.059 44.032H149.619L149.235 42.624L152.755 41.152C153.822 40.6827 154.44 40.2133 154.611 39.744C154.654 39.5307 154.696 39.1893 154.739 38.72L156.339 6.08L150.835 3.84L151.219 2.432H164.147L164.979 3.072L175.795 36.48L187.123 2.432H200.435L200.819 3.84L197.299 5.312C195.934 5.86667 195.272 6.67733 195.315 7.744Z" fill="white"/>
<path d="M206.381 29.632C206.381 24.9387 207.725 21.2907 210.413 18.688C213.101 16.0427 216.237 14.72 219.821 14.72C223.405 14.72 226.114 15.7867 227.949 17.92C229.784 20.0107 230.701 22.8907 230.701 26.56V28.672L229.741 29.632H211.821C211.906 32.9173 212.824 35.5413 214.573 37.504C216.322 39.4667 218.562 40.448 221.293 40.448C224.066 40.448 226.712 39.8933 229.229 38.784L230.125 40.448C229.613 40.96 228.994 41.4933 228.269 42.048C227.544 42.56 226.37 43.1147 224.749 43.712C223.17 44.2667 221.506 44.544 219.757 44.544C215.789 44.544 212.568 43.2427 210.093 40.64C207.618 37.9947 206.381 34.3253 206.381 29.632ZM219.117 18.816C217.112 18.816 215.469 19.136 214.189 19.776C213.677 20.416 213.165 21.44 212.653 22.848C212.184 24.256 211.928 25.6 211.885 26.88L225.581 26.496C225.581 21.376 223.426 18.816 219.117 18.816Z" fill="white"/>
<path d="M273.118 7.744V40.384L278.622 42.624L278.238 44.032H262.559L262.174 42.624L265.694 41.152C266.462 40.8533 266.974 40.5333 267.23 40.192C267.529 39.8507 267.678 39.36 267.678 38.72V24.576H247.007V40.384L252.51 42.624L252.126 44.032H236.447L236.062 42.624L239.583 41.152C240.351 40.8533 240.863 40.5333 241.118 40.192C241.417 39.8507 241.566 39.36 241.566 38.72V6.08L236.062 3.84L236.447 2.432H252.126L252.51 3.84L248.99 5.312C248.222 5.61067 247.689 5.93067 247.391 6.272C247.135 6.61333 247.007 7.104 247.007 7.744V20.928H267.678V6.08L262.174 3.84L262.559 2.432H278.238L278.622 3.84L275.103 5.312C274.335 5.61067 273.801 5.93067 273.503 6.272C273.246 6.61333 273.118 7.104 273.118 7.744Z" fill="white"/>
<path d="M288.759 28.928C288.759 36.608 291.681 40.448 297.526 40.448C299.66 40.448 301.494 40.128 303.03 39.488C304.609 37.44 305.398 34.3893 305.398 30.336C305.398 22.656 302.476 18.816 296.63 18.816C294.497 18.816 292.663 19.136 291.126 19.776C289.548 21.824 288.759 24.8747 288.759 28.928ZM296.694 44.544C292.727 44.544 289.505 43.2427 287.03 40.64C284.556 38.0373 283.319 34.368 283.319 29.632C283.319 24.8533 284.684 21.184 287.414 18.624C290.145 16.0213 293.495 14.72 297.462 14.72C301.43 14.72 304.652 16.0213 307.126 18.624C309.601 21.2267 310.839 24.9173 310.839 29.696C310.839 34.432 309.473 38.1013 306.742 40.704C304.012 43.264 300.662 44.544 296.694 44.544Z" fill="white"/>
<path d="M357.513 25.28C357.513 23.104 357.001 21.5467 355.978 20.608C354.996 19.6267 353.375 19.136 351.113 19.136C348.852 19.136 346.441 19.4773 343.882 20.16C344.308 21.568 344.522 23.0187 344.522 24.512V40.576L349.578 42.624L349.194 44.032H334.858L334.474 42.624L337.354 41.408C338.122 41.1093 338.633 40.7893 338.889 40.448C339.188 40.1067 339.337 39.616 339.337 38.976V25.28C339.337 23.104 338.826 21.5467 337.802 20.608C336.82 19.6267 335.22 19.136 333.001 19.136C330.783 19.136 328.564 19.4133 326.345 19.968V40.576L331.401 42.624L331.017 44.032H316.681L316.297 42.624L319.177 41.408C319.945 41.1093 320.457 40.7893 320.714 40.448C321.012 40.1067 321.161 39.616 321.161 38.976V19.84L316.681 19.136L316.297 17.728L324.553 14.72L325.833 15.232L325.961 17.024L326.217 17.152C329.161 15.5307 332.233 14.72 335.434 14.72C338.634 14.72 341.001 15.68 342.538 17.6C346.292 15.68 349.855 14.72 353.225 14.72C359.54 14.72 362.698 17.984 362.698 24.512V40.576L367.754 42.624L367.37 44.032H353.034L352.65 42.624L355.53 41.408C356.298 41.1093 356.809 40.7893 357.065 40.448C357.364 40.1067 357.513 39.616 357.513 38.976V25.28Z" fill="white"/>
<path d="M371.881 29.632C371.881 24.9387 373.225 21.2907 375.913 18.688C378.601 16.0427 381.737 14.72 385.321 14.72C388.905 14.72 391.614 15.7867 393.449 17.92C395.284 20.0107 396.201 22.8907 396.201 26.56V28.672L395.241 29.632H377.321C377.406 32.9173 378.324 35.5413 380.073 37.504C381.822 39.4667 384.062 40.448 386.793 40.448C389.566 40.448 392.212 39.8933 394.729 38.784L395.625 40.448C395.113 40.96 394.494 41.4933 393.769 42.048C393.044 42.56 391.87 43.1147 390.249 43.712C388.67 44.2667 387.006 44.544 385.257 44.544C381.289 44.544 378.068 43.2427 375.593 40.64C373.118 37.9947 371.881 34.3253 371.881 29.632ZM384.617 18.816C382.612 18.816 380.969 19.136 379.689 19.776C379.177 20.416 378.665 21.44 378.153 22.848C377.684 24.256 377.428 25.6 377.385 26.88L391.081 26.496C391.081 21.376 388.926 18.816 384.617 18.816Z" fill="white"/>
<path d="M58.3215 77.24V85.176L61.1695 86.328L60.9775 87.032H53.0415L52.8495 86.328L54.6095 85.592C54.9935 85.4427 55.2495 85.2827 55.3775 85.112C55.5268 84.9413 55.6015 84.696 55.6015 84.376V68.056L52.8495 66.936L53.0415 66.232H67.9215V70.616L66.9615 70.84L65.4255 68.024L59.1855 67.896C58.6095 67.896 58.3215 68.2267 58.3215 68.888V75.544H63.4415L64.4655 73.336L65.1695 73.528V79.48L64.4655 79.672L63.8575 78.232C63.7082 77.848 63.5482 77.592 63.3775 77.464C63.2068 77.3147 62.9615 77.24 62.6415 77.24H58.3215Z" fill="white"/>
<path d="M73.3365 84.504V74.936L71.0965 74.584L70.9045 73.88L75.2885 72.376L75.9285 72.632V85.304L78.4565 86.328L78.2645 87.032H71.0965L70.9045 86.328L72.3445 85.72C72.7285 85.5707 72.9845 85.4107 73.1125 85.24C73.2618 85.0693 73.3365 84.824 73.3365 84.504ZM74.4565 69.048C73.9658 69.048 73.5498 68.888 73.2085 68.568C72.8885 68.2267 72.7285 67.8107 72.7285 67.32C72.7285 66.808 72.8885 66.3813 73.2085 66.04C73.5498 65.6987 73.9658 65.528 74.4565 65.528C74.9685 65.528 75.3952 65.6987 75.7365 66.04C76.0778 66.3813 76.2485 66.808 76.2485 67.32C76.2485 67.8107 76.0778 68.2267 75.7365 68.568C75.3952 68.888 74.9685 69.048 74.4565 69.048Z" fill="white"/>
<path d="M92.612 77.656C92.612 76.568 92.356 75.7893 91.844 75.32C91.3533 74.8293 90.5533 74.584 89.444 74.584C88.3347 74.584 87.2253 74.7227 86.116 75V85.304L88.644 86.328L88.452 87.032H81.284L81.092 86.328L82.532 85.72C82.916 85.5707 83.172 85.4107 83.3 85.24C83.4493 85.0693 83.524 84.824 83.524 84.504V74.936L81.284 74.584L81.092 73.88L85.22 72.376L85.86 72.632L85.924 73.528L86.052 73.592C87.524 72.7813 89.0387 72.376 90.596 72.376C93.668 72.376 95.204 74.008 95.204 77.272V85.304L97.732 86.328L97.54 87.032H90.372L90.18 86.328L91.62 85.72C92.004 85.5707 92.26 85.4107 92.388 85.24C92.5373 85.0693 92.612 84.824 92.612 84.504V77.656Z" fill="white"/>
<path d="M110.78 86.072C109.393 86.8827 107.836 87.288 106.108 87.288C104.38 87.288 103.015 86.5733 102.012 85.144C101.031 83.7147 100.54 81.88 100.54 79.64C100.54 77.3787 101.212 75.608 102.556 74.328C103.921 73.0267 105.649 72.376 107.74 72.376C108.657 72.376 109.5 72.44 110.268 72.568L110.716 72.664V67.576L108.476 67.224L108.284 66.52L112.668 65.016L113.308 65.272V85.304L115.516 86.328L115.324 87.032L112.284 87.288L111.836 87.096L110.908 86.136L110.78 86.072ZM110.716 74.872C109.863 74.5733 108.807 74.424 107.548 74.424C106.311 74.424 105.276 74.584 104.444 74.904C103.655 75.9493 103.26 77.4747 103.26 79.48C103.26 83.2133 104.668 85.08 107.484 85.08C108.529 85.08 109.607 84.9413 110.716 84.664V74.872Z" fill="white"/>
<path d="M120.935 87.288C120.444 87.288 120.028 87.128 119.687 86.808C119.367 86.4667 119.207 86.0507 119.207 85.56C119.207 85.048 119.367 84.6213 119.687 84.28C120.028 83.9387 120.444 83.768 120.935 83.768C121.447 83.768 121.873 83.9387 122.215 84.28C122.556 84.6213 122.727 85.048 122.727 85.56C122.727 86.0507 122.556 86.4667 122.215 86.808C121.873 87.128 121.447 87.288 120.935 87.288Z" fill="white"/>
<path d="M142.834 78.008H140.978V85.208L143.634 86.328L143.442 87.032H135.698L135.506 86.328L137.266 85.592C137.65 85.4427 137.906 85.2827 138.034 85.112C138.183 84.9413 138.258 84.696 138.258 84.376V68.056L135.506 66.936L135.698 66.232C139.218 66.0613 141.628 65.976 142.93 65.976C148.455 65.976 151.218 67.96 151.218 71.928C151.218 75.064 149.532 77.0053 146.162 77.752C146.396 77.9653 146.61 78.2747 146.802 78.68C148.252 81.6453 149.33 83.5653 150.034 84.44C150.738 85.3147 151.826 85.912 153.298 86.232L153.074 87.032L149.49 87.288C148.338 86.3493 147.463 85.4213 146.866 84.504C146.29 83.5867 145.33 81.7093 143.986 78.872C143.708 78.296 143.324 78.008 142.834 78.008ZM140.978 68.536V76.376H143.058C144.636 76.376 145.874 76.1947 146.77 75.832C147.239 75.4907 147.602 75.096 147.858 74.648C148.114 74.1787 148.242 73.496 148.242 72.6C148.242 71.2133 147.868 70.0613 147.122 69.144C146.396 68.2053 145.191 67.736 143.506 67.736H141.842C141.266 67.736 140.978 68.0027 140.978 68.536Z" fill="white"/>
<path d="M155.759 79.832C155.759 77.4853 156.431 75.6613 157.775 74.36C159.119 73.0373 160.687 72.376 162.479 72.376C164.271 72.376 165.625 72.9093 166.543 73.976C167.46 75.0213 167.919 76.4613 167.919 78.296V79.352L167.439 79.832H158.479C158.521 81.4747 158.98 82.7867 159.855 83.768C160.729 84.7493 161.849 85.24 163.215 85.24C164.601 85.24 165.924 84.9627 167.183 84.408L167.631 85.24C167.375 85.496 167.065 85.7627 166.703 86.04C166.34 86.296 165.753 86.5733 164.943 86.872C164.153 87.1493 163.321 87.288 162.447 87.288C160.463 87.288 158.852 86.6373 157.615 85.336C156.377 84.0133 155.759 82.1787 155.759 79.832ZM162.127 74.424C161.124 74.424 160.303 74.584 159.663 74.904C159.407 75.224 159.151 75.736 158.895 76.44C158.66 77.144 158.532 77.816 158.511 78.456L165.359 78.264C165.359 75.704 164.281 74.424 162.127 74.424Z" fill="white"/>
<path d="M179.149 74.424C178.659 74.2107 177.901 74.104 176.877 74.104C175.875 74.104 175.117 74.36 174.605 74.872C174.413 75.1707 174.317 75.5227 174.317 75.928C174.317 76.824 174.861 77.4747 175.949 77.88L179.213 79.032C180.131 79.352 180.867 79.8747 181.421 80.6C181.976 81.304 182.253 82.136 182.253 83.096C182.253 84.44 181.741 85.4747 180.717 86.2C179.693 86.9253 178.488 87.288 177.101 87.288C175.736 87.288 174.584 87.064 173.645 86.616C172.728 86.1467 172.056 85.656 171.629 85.144L173.261 82.488L174.061 82.712L174.189 84.856C174.936 85.2827 175.885 85.496 177.037 85.496C178.979 85.496 179.949 84.8347 179.949 83.512C179.949 82.9787 179.779 82.552 179.437 82.232C179.096 81.912 178.541 81.624 177.773 81.368L174.829 80.408C173.955 80.1093 173.283 79.6187 172.813 78.936C172.344 78.2533 172.109 77.4853 172.109 76.632C172.109 75.288 172.643 74.2427 173.709 73.496C174.776 72.7493 176.013 72.376 177.421 72.376C178.275 72.376 179.075 72.5467 179.821 72.888C180.867 73.336 181.571 73.8373 181.933 74.392L180.173 76.888L179.405 76.664L179.149 74.424Z" fill="white"/>
<path d="M194.933 74.552C194.464 74.424 193.717 74.36 192.693 74.36C191.669 74.36 190.794 74.5413 190.069 74.904C189.258 75.928 188.853 77.3893 188.853 79.288C188.853 81.1867 189.301 82.6587 190.197 83.704C191.093 84.728 192.245 85.24 193.653 85.24C195.061 85.24 196.373 84.9627 197.589 84.408L198.037 85.24C197.781 85.496 197.472 85.7627 197.109 86.04C196.746 86.296 196.16 86.5733 195.349 86.872C194.56 87.1493 193.728 87.288 192.853 87.288C190.869 87.288 189.258 86.6373 188.021 85.336C186.784 84.0133 186.165 82.1787 186.165 79.832C186.165 77.4853 186.837 75.6613 188.181 74.36C189.546 73.0373 191.2 72.376 193.141 72.376C194.101 72.376 194.954 72.5573 195.701 72.92C196.448 73.2827 196.949 73.6027 197.205 73.88C197.461 74.1573 197.664 74.4347 197.813 74.712L195.957 77.208L195.189 76.984L194.933 74.552Z" fill="white"/>
<path d="M207.588 87.288C204.516 87.288 202.98 85.656 202.98 82.392V74.936L200.74 74.584L200.548 73.88L204.932 72.376L205.572 72.632V82.008C205.572 83.096 205.817 83.8853 206.308 84.376C206.82 84.8453 207.631 85.08 208.74 85.08C209.849 85.08 210.959 84.9413 212.068 84.664V74.936L209.828 74.584L209.636 73.88L214.02 72.376L214.66 72.632V85.304L216.868 86.072L216.676 86.776L213.956 87.288L213.316 87.032L212.292 86.136L212.132 86.072C210.66 86.8827 209.145 87.288 207.588 87.288Z" fill="white"/>
<path d="M220.134 79.832C220.134 77.4853 220.806 75.6613 222.15 74.36C223.494 73.0373 225.062 72.376 226.854 72.376C228.646 72.376 230 72.9093 230.918 73.976C231.835 75.0213 232.294 76.4613 232.294 78.296V79.352L231.814 79.832H222.854C222.896 81.4747 223.355 82.7867 224.23 83.768C225.104 84.7493 226.224 85.24 227.59 85.24C228.976 85.24 230.299 84.9627 231.558 84.408L232.006 85.24C231.75 85.496 231.44 85.7627 231.078 86.04C230.715 86.296 230.128 86.5733 229.318 86.872C228.528 87.1493 227.696 87.288 226.822 87.288C224.838 87.288 223.227 86.6373 221.99 85.336C220.752 84.0133 220.134 82.1787 220.134 79.832ZM226.502 74.424C225.499 74.424 224.678 74.584 224.038 74.904C223.782 75.224 223.526 75.736 223.27 76.44C223.035 77.144 222.907 77.816 222.886 78.456L229.734 78.264C229.734 75.704 228.656 74.424 226.502 74.424Z" fill="white"/>
<path d="M238.372 87.288C237.882 87.288 237.466 87.128 237.124 86.808C236.804 86.4667 236.644 86.0507 236.644 85.56C236.644 85.048 236.804 84.6213 237.124 84.28C237.466 83.9387 237.882 83.768 238.372 83.768C238.884 83.768 239.311 83.9387 239.652 84.28C239.994 84.6213 240.164 85.048 240.164 85.56C240.164 86.0507 239.994 86.4667 239.652 86.808C239.311 87.128 238.884 87.288 238.372 87.288Z" fill="white"/>
<path d="M265.768 84.792C265.768 84.664 265.736 84.5253 265.672 84.376L264.232 80.312H256.808L255.112 85.208L257.864 86.328L257.672 87.032H250.6L250.408 86.328L252.168 85.592C252.531 85.4427 252.755 85.304 252.84 85.176C252.947 85.048 253.075 84.7813 253.224 84.376L259.624 66.552L261.576 65.976L262.216 66.232L269.096 85.304L271.592 86.328L271.4 87.032H263.56L263.368 86.328L265.128 85.592C265.555 85.4213 265.768 85.1547 265.768 84.792ZM260.488 69.688L257.352 78.68H263.656L260.488 69.688Z" fill="white"/>
<path d="M283.749 86.072C282.362 86.8827 280.805 87.288 279.077 87.288C277.349 87.288 275.983 86.5733 274.981 85.144C273.999 83.7147 273.509 81.88 273.509 79.64C273.509 77.3787 274.181 75.608 275.525 74.328C276.89 73.0267 278.618 72.376 280.709 72.376C281.626 72.376 282.469 72.44 283.237 72.568L283.685 72.664V67.576L281.445 67.224L281.253 66.52L285.637 65.016L286.277 65.272V85.304L288.485 86.328L288.293 87.032L285.253 87.288L284.805 87.096L283.877 86.136L283.749 86.072ZM283.685 74.872C282.831 74.5733 281.775 74.424 280.517 74.424C279.279 74.424 278.245 74.584 277.413 74.904C276.623 75.9493 276.229 77.4747 276.229 79.48C276.229 83.2133 277.637 85.08 280.453 85.08C281.498 85.08 282.575 84.9413 283.685 84.664V74.872Z" fill="white"/>
<path d="M294.448 79.48C294.448 83.32 295.909 85.24 298.832 85.24C299.898 85.24 300.815 85.08 301.583 84.76C302.373 83.736 302.767 82.2107 302.767 80.184C302.767 76.344 301.306 74.424 298.384 74.424C297.317 74.424 296.4 74.584 295.632 74.904C294.842 75.928 294.448 77.4533 294.448 79.48ZM298.415 87.288C296.431 87.288 294.821 86.6373 293.583 85.336C292.346 84.0347 291.728 82.2 291.728 79.832C291.728 77.4427 292.41 75.608 293.776 74.328C295.141 73.0267 296.815 72.376 298.799 72.376C300.784 72.376 302.394 73.0267 303.632 74.328C304.869 75.6293 305.487 77.4747 305.487 79.864C305.487 82.232 304.805 84.0667 303.44 85.368C302.074 86.648 300.4 87.288 298.415 87.288Z" fill="white"/>
<path d="M318.023 72.376C319.9 72.376 321.33 73.1013 322.311 74.552C323.314 75.9813 323.815 77.816 323.815 80.056C323.815 82.296 323.132 84.0667 321.767 85.368C320.423 86.648 318.738 87.288 316.711 87.288C315.73 87.288 314.706 87.192 313.639 87V92.6L316.167 93.624L315.975 94.328H308.807L308.615 93.624L310.055 93.016C310.439 92.8667 310.695 92.7067 310.823 92.536C310.972 92.3653 311.047 92.12 311.047 91.8V74.936L308.807 74.584L308.615 73.88L312.743 72.376L313.383 72.632L313.447 73.528L313.575 73.592C315.026 72.7813 316.508 72.376 318.023 72.376ZM313.639 84.792C314.492 85.0907 315.538 85.24 316.775 85.24C318.034 85.24 319.079 85.08 319.911 84.76C320.7 83.7147 321.095 82.1893 321.095 80.184C321.095 76.4507 319.687 74.584 316.871 74.584C315.826 74.584 314.748 74.7227 313.639 75V84.792Z" fill="white"/>
<path d="M329.295 84.184V74.168H327.055L326.863 73.464L329.295 72.376L330.703 69.4L331.887 69.624V72.632H335.695L336.047 73.016L335.727 74.232L331.887 74.104V83.448C331.887 84.2373 332.047 84.824 332.367 85.208C332.687 85.5707 333.252 85.752 334.063 85.752H335.887L336.047 86.648C334.703 87.0747 333.519 87.288 332.495 87.288C331.471 87.288 330.681 87 330.127 86.424C329.572 85.848 329.295 85.1013 329.295 84.184Z" fill="white"/>
<path d="M341.185 87.288C340.694 87.288 340.278 87.128 339.937 86.808C339.617 86.4667 339.457 86.0507 339.457 85.56C339.457 85.048 339.617 84.6213 339.937 84.28C340.278 83.9387 340.694 83.768 341.185 83.768C341.697 83.768 342.123 83.9387 342.465 84.28C342.806 84.6213 342.977 85.048 342.977 85.56C342.977 86.0507 342.806 86.4667 342.465 86.808C342.123 87.128 341.697 87.288 341.185 87.288Z" fill="white"/>
</svg>
