<svg width="230" height="26" viewBox="0 0 230 26" fill="none" xmlns="http://www.w3.org/2000/svg">
<path d="M6.38781 14.312V23.24L9.59181 24.536L9.37581 25.328H0.447813L0.231813 24.536L2.21181 23.708C2.64381 23.54 2.93181 23.36 3.07581 23.168C3.24381 22.976 3.32781 22.7 3.32781 22.34V3.98L0.231813 2.72L0.447813 1.928H17.1878V6.86L16.1078 7.112L14.3798 3.944L7.35981 3.8C6.71181 3.8 6.38781 4.172 6.38781 4.916V12.404H12.1478L13.2998 9.92L14.0918 10.136V16.832L13.2998 17.048L12.6158 15.428C12.4478 14.996 12.2678 14.708 12.0758 14.564C11.8838 14.396 11.6078 14.312 11.2478 14.312H6.38781Z" fill="white"/>
<path d="M19.8055 17.228C19.8055 14.588 20.5615 12.536 22.0735 11.072C23.5855 9.584 25.3495 8.84 27.3655 8.84C29.3815 8.84 30.9055 9.44 31.9375 10.64C32.9695 11.816 33.4855 13.436 33.4855 15.5V16.688L32.9455 17.228H22.8655C22.9135 19.076 23.4295 20.552 24.4135 21.656C25.3975 22.76 26.6575 23.312 28.1935 23.312C29.7535 23.312 31.2415 23 32.6575 22.376L33.1615 23.312C32.8735 23.6 32.5255 23.9 32.1175 24.212C31.7095 24.5 31.0495 24.812 30.1375 25.148C29.2495 25.46 28.3135 25.616 27.3295 25.616C25.0975 25.616 23.2855 24.884 21.8935 23.42C20.5015 21.932 19.8055 19.868 19.8055 17.228ZM26.9695 11.144C25.8415 11.144 24.9175 11.324 24.1975 11.684C23.9095 12.044 23.6215 12.62 23.3335 13.412C23.0695 14.204 22.9255 14.96 22.9015 15.68L30.6055 15.464C30.6055 12.584 29.3935 11.144 26.9695 11.144Z" fill="white"/>
<path d="M39.4163 22.124V10.856H36.8963L36.6803 10.064L39.4163 8.84L41.0003 5.492L42.3323 5.744V9.128H46.6163L47.0123 9.56L46.6523 10.928L42.3323 10.784V21.296C42.3323 22.184 42.5123 22.844 42.8723 23.276C43.2323 23.684 43.8683 23.888 44.7803 23.888H46.8323L47.0123 24.896C45.5003 25.376 44.1683 25.616 43.0163 25.616C41.8643 25.616 40.9763 25.292 40.3523 24.644C39.7283 23.996 39.4163 23.156 39.4163 22.124Z" fill="white"/>
<path d="M60.0211 11.288C59.4931 11.144 58.6531 11.072 57.5011 11.072C56.3491 11.072 55.3651 11.276 54.5491 11.684C53.6371 12.836 53.1811 14.48 53.1811 16.616C53.1811 18.752 53.6851 20.408 54.6931 21.584C55.7011 22.736 56.9971 23.312 58.5811 23.312C60.1651 23.312 61.6411 23 63.0091 22.376L63.5131 23.312C63.2251 23.6 62.8771 23.9 62.4691 24.212C62.0611 24.5 61.4011 24.812 60.4891 25.148C59.6011 25.46 58.6651 25.616 57.6811 25.616C55.4491 25.616 53.6371 24.884 52.2451 23.42C50.8531 21.932 50.1571 19.868 50.1571 17.228C50.1571 14.588 50.9131 12.536 52.4251 11.072C53.9611 9.584 55.8211 8.84 58.0051 8.84C59.0851 8.84 60.0451 9.044 60.8851 9.452C61.7251 9.86 62.2891 10.22 62.5771 10.532C62.8651 10.844 63.0931 11.156 63.2611 11.468L61.1731 14.276L60.3091 14.024L60.0211 11.288Z" fill="white"/>
<path d="M79.2184 14.78C79.2184 13.556 78.9304 12.68 78.3544 12.152C77.8024 11.6 76.9024 11.324 75.6544 11.324C74.4064 11.324 73.1584 11.48 71.9104 11.792V23.384L74.7544 24.536L74.5384 25.328H66.4744L66.2584 24.536L67.8784 23.852C68.3104 23.684 68.5984 23.504 68.7424 23.312C68.9104 23.12 68.9944 22.844 68.9944 22.484V3.44L66.4744 3.044L66.2584 2.252L71.1184 0.559998L71.8384 0.847998V10.208C73.4944 9.296 75.1984 8.84 76.9504 8.84C80.4064 8.84 82.1344 10.676 82.1344 14.348V23.384L84.9784 24.536L84.7624 25.328H76.6984L76.4824 24.536L78.1024 23.852C78.5344 23.684 78.8224 23.504 78.9664 23.312C79.1344 23.12 79.2184 22.844 79.2184 22.484V14.78Z" fill="white"/>
<path d="M113.378 4.916L114.206 23.276L117.302 24.536L117.086 25.328H108.554L108.338 24.536L109.958 23.744C110.726 23.384 111.098 22.916 111.074 22.34L110.282 4.7L103.37 24.608L101.138 25.328L100.454 24.968L93.7218 4.736L92.7138 23.276L95.4498 24.536L95.2338 25.328H87.6738L87.4578 24.536L89.4378 23.708C90.0378 23.444 90.3858 23.18 90.4818 22.916C90.5058 22.796 90.5298 22.604 90.5538 22.34L91.4538 3.98L88.3578 2.72L88.5737 1.928H95.8458L96.3138 2.288L102.398 21.08L108.77 1.928H116.258L116.474 2.72L114.494 3.548C113.726 3.86 113.354 4.316 113.378 4.916Z" fill="white"/>
<path d="M120.259 17.228C120.259 14.588 121.015 12.536 122.527 11.072C124.039 9.584 125.803 8.84 127.819 8.84C129.835 8.84 131.359 9.44 132.391 10.64C133.423 11.816 133.939 13.436 133.939 15.5V16.688L133.399 17.228H123.319C123.367 19.076 123.883 20.552 124.867 21.656C125.851 22.76 127.111 23.312 128.647 23.312C130.207 23.312 131.695 23 133.111 22.376L133.615 23.312C133.327 23.6 132.979 23.9 132.571 24.212C132.163 24.5 131.503 24.812 130.591 25.148C129.703 25.46 128.767 25.616 127.783 25.616C125.551 25.616 123.739 24.884 122.347 23.42C120.955 21.932 120.259 19.868 120.259 17.228ZM127.423 11.144C126.295 11.144 125.371 11.324 124.651 11.684C124.363 12.044 124.075 12.62 123.787 13.412C123.523 14.204 123.379 14.96 123.355 15.68L131.059 15.464C131.059 12.584 129.847 11.144 127.423 11.144Z" fill="white"/>
<path d="M158.455 4.916V23.276L161.551 24.536L161.335 25.328H152.515L152.299 24.536L154.279 23.708C154.711 23.54 154.999 23.36 155.143 23.168C155.311 22.976 155.395 22.7 155.395 22.34V14.384H143.767V23.276L146.863 24.536L146.647 25.328H137.827L137.611 24.536L139.591 23.708C140.023 23.54 140.311 23.36 140.455 23.168C140.623 22.976 140.707 22.7 140.707 22.34V3.98L137.611 2.72L137.827 1.928H146.647L146.863 2.72L144.883 3.548C144.451 3.716 144.151 3.896 143.983 4.088C143.839 4.28 143.767 4.556 143.767 4.916V12.332H155.395V3.98L152.299 2.72L152.515 1.928H161.335L161.551 2.72L159.571 3.548C159.139 3.716 158.839 3.896 158.671 4.088C158.527 4.28 158.455 4.556 158.455 4.916Z" fill="white"/>
<path d="M167.908 16.832C167.908 21.152 169.552 23.312 172.84 23.312C174.04 23.312 175.072 23.132 175.936 22.772C176.824 21.62 177.268 19.904 177.268 17.624C177.268 13.304 175.624 11.144 172.336 11.144C171.136 11.144 170.104 11.324 169.24 11.684C168.352 12.836 167.908 14.552 167.908 16.832ZM172.372 25.616C170.14 25.616 168.328 24.884 166.936 23.42C165.544 21.956 164.848 19.892 164.848 17.228C164.848 14.54 165.616 12.476 167.152 11.036C168.688 9.572 170.572 8.84 172.804 8.84C175.036 8.84 176.848 9.572 178.24 11.036C179.632 12.5 180.328 14.576 180.328 17.264C180.328 19.928 179.56 21.992 178.024 23.456C176.488 24.896 174.604 25.616 172.372 25.616Z" fill="white"/>
<path d="M207.239 14.78C207.239 13.556 206.951 12.68 206.375 12.152C205.823 11.6 204.911 11.324 203.639 11.324C202.367 11.324 201.011 11.516 199.571 11.9C199.811 12.692 199.931 13.508 199.931 14.348V23.384L202.775 24.536L202.559 25.328H194.495L194.279 24.536L195.899 23.852C196.331 23.684 196.619 23.504 196.763 23.312C196.931 23.12 197.015 22.844 197.015 22.484V14.78C197.015 13.556 196.727 12.68 196.151 12.152C195.599 11.6 194.699 11.324 193.451 11.324C192.203 11.324 190.955 11.48 189.707 11.792V23.384L192.551 24.536L192.335 25.328H184.271L184.055 24.536L185.675 23.852C186.107 23.684 186.395 23.504 186.539 23.312C186.707 23.12 186.791 22.844 186.791 22.484V11.72L184.271 11.324L184.055 10.532L188.699 8.84L189.419 9.128L189.491 10.136L189.635 10.208C191.291 9.296 193.019 8.84 194.819 8.84C196.619 8.84 197.951 9.38 198.815 10.46C200.927 9.38 202.931 8.84 204.827 8.84C208.379 8.84 210.155 10.676 210.155 14.348V23.384L212.999 24.536L212.783 25.328H204.719L204.503 24.536L206.123 23.852C206.555 23.684 206.843 23.504 206.987 23.312C207.155 23.12 207.239 22.844 207.239 22.484V14.78Z" fill="white"/>
<path d="M215.977 17.228C215.977 14.588 216.733 12.536 218.245 11.072C219.757 9.584 221.521 8.84 223.537 8.84C225.553 8.84 227.077 9.44 228.109 10.64C229.141 11.816 229.657 13.436 229.657 15.5V16.688L229.117 17.228H219.037C219.085 19.076 219.601 20.552 220.585 21.656C221.569 22.76 222.829 23.312 224.365 23.312C225.925 23.312 227.413 23 228.829 22.376L229.333 23.312C229.045 23.6 228.697 23.9 228.289 24.212C227.881 24.5 227.221 24.812 226.309 25.148C225.421 25.46 224.485 25.616 223.501 25.616C221.269 25.616 219.457 24.884 218.065 23.42C216.673 21.932 215.977 19.868 215.977 17.228ZM223.141 11.144C222.013 11.144 221.089 11.324 220.369 11.684C220.081 12.044 219.793 12.62 219.505 13.412C219.241 14.204 219.097 14.96 219.073 15.68L226.777 15.464C226.777 12.584 225.565 11.144 223.141 11.144Z" fill="white"/>
</svg>
